<svg xmlns="http://www.w3.org/2000/svg" viewBox="0 0 512 512" width="512" height="512">
  <defs>
    <!-- Deep space background gradient -->
    <radialGradient id="bgGrad" cx="50%" cy="40%" r="70%">
      <stop offset="0%" stop-color="#0a1a3a"/>
      <stop offset="50%" stop-color="#001a4d"/>
      <stop offset="100%" stop-color="#000a1e"/>
    </radialGradient>

    <!-- Cyan energy glow behind shield -->
    <radialGradient id="cyanGlow" cx="50%" cy="42%" r="30%">
      <stop offset="0%" stop-color="#00F5FF" stop-opacity="0.35"/>
      <stop offset="60%" stop-color="#667EEA" stop-opacity="0.12"/>
      <stop offset="100%" stop-color="#000a1e" stop-opacity="0"/>
    </radialGradient>

    <!-- Gold 3D gradient for shield outer -->
    <linearGradient id="goldShield" x1="0" y1="0" x2="1" y2="1">
      <stop offset="0%" stop-color="#FFF176"/>
      <stop offset="30%" stop-color="#FFD600"/>
      <stop offset="60%" stop-color="#FFB300"/>
      <stop offset="100%" stop-color="#FF8F00"/>
    </linearGradient>

    <!-- Inner shield 3D depth -->
    <linearGradient id="innerShield" x1="0" y1="0" x2="0.5" y2="1">
      <stop offset="0%" stop-color="#0a2a5e"/>
      <stop offset="100%" stop-color="#001040"/>
    </linearGradient>

    <!-- Gold text gradient -->
    <linearGradient id="goldText" x1="0" y1="0" x2="0" y2="1">
      <stop offset="0%" stop-color="#FFF176"/>
      <stop offset="50%" stop-color="#FFD600"/>
      <stop offset="100%" stop-color="#FFB300"/>
    </linearGradient>

    <!-- Shield drop shadow -->
    <filter id="shieldShadow" x="-30%" y="-30%" width="160%" height="160%">
      <feDropShadow dx="0" dy="4" stdDeviation="8" flood-color="#000000" flood-opacity="0.5"/>
    </filter>

    <!-- Shield outer glow -->
    <filter id="shieldGlow" x="-50%" y="-50%" width="200%" height="200%">
      <feGaussianBlur in="SourceGraphic" stdDeviation="6" result="blur"/>
      <feColorMatrix in="blur" type="matrix" values="0 0 0 0 1  0 0 0 0 0.84  0 0 0 0 0  0 0 0 0.4 0" result="gold"/>
      <feMerge>
        <feMergeNode in="gold"/>
        <feMergeNode in="SourceGraphic"/>
      </feMerge>
    </filter>

    <!-- Cyan text glow -->
    <filter id="cyanTextGlow" x="-20%" y="-20%" width="140%" height="140%">
      <feGaussianBlur in="SourceGraphic" stdDeviation="3" result="blur"/>
      <feColorMatrix in="blur" type="matrix" values="0 0 0 0 0  0 0 0 0 0.96  0 0 0 0 1  0 0 0 0.6 0" result="cyan"/>
      <feMerge>
        <feMergeNode in="cyan"/>
        <feMergeNode in="SourceGraphic"/>
      </feMerge>
    </filter>

    <!-- Subtle line glow -->
    <filter id="lineGlow" x="-10%" y="-200%" width="120%" height="500%">
      <feGaussianBlur in="SourceGraphic" stdDeviation="2" result="blur"/>
      <feMerge>
        <feMergeNode in="blur"/>
        <feMergeNode in="SourceGraphic"/>
      </feMerge>
    </filter>

    <!-- Hex grid pattern for tech background -->
    <pattern id="hexGrid" x="0" y="0" width="30" height="26" patternUnits="userSpaceOnUse" patternTransform="rotate(30)">
      <polygon points="15,0 28,7.5 28,18.5 15,26 2,18.5 2,7.5" fill="none" stroke="#667EEA" stroke-width="0.3" stroke-opacity="0.12"/>
    </pattern>

    <!-- Scan line overlay -->
    <pattern id="scanLines" x="0" y="0" width="4" height="4" patternUnits="userSpaceOnUse">
      <line x1="0" y1="0" x2="4" y2="0" stroke="#ffffff" stroke-width="0.3" stroke-opacity="0.03"/>
    </pattern>
  </defs>

  <!-- BACKGROUND LAYERS -->
  <!-- Base dark gradient -->
  <circle cx="256" cy="256" r="256" fill="url(#bgGrad)"/>

  <!-- Hex grid tech pattern -->
  <circle cx="256" cy="256" r="256" fill="url(#hexGrid)"/>

  <!-- Scan line overlay for HD depth -->
  <circle cx="256" cy="256" r="256" fill="url(#scanLines)"/>

  <!-- Cyan energy glow -->
  <circle cx="256" cy="256" r="256" fill="url(#cyanGlow)"/>

  <!-- Subtle ring accents for 3D depth -->
  <circle cx="256" cy="256" r="240" fill="none" stroke="#667EEA" stroke-width="0.5" stroke-opacity="0.15"/>
  <circle cx="256" cy="256" r="220" fill="none" stroke="#00F5FF" stroke-width="0.3" stroke-opacity="0.08"/>
  <circle cx="256" cy="256" r="180" fill="none" stroke="#667EEA" stroke-width="0.3" stroke-opacity="0.06"/>

  <!-- Small particle dots for HD detail -->
  <circle cx="80" cy="120" r="1" fill="#00F5FF" opacity="0.3"/>
  <circle cx="420" cy="90" r="1.2" fill="#667EEA" opacity="0.25"/>
  <circle cx="60" cy="350" r="0.8" fill="#FFD600" opacity="0.2"/>
  <circle cx="440" cy="380" r="1" fill="#00F5FF" opacity="0.2"/>
  <circle cx="130" cy="450" r="0.7" fill="#667EEA" opacity="0.15"/>
  <circle cx="380" cy="460" r="0.9" fill="#00F5FF" opacity="0.15"/>
  <circle cx="350" cy="70" r="0.6" fill="#FFD600" opacity="0.15"/>
  <circle cx="160" cy="80" r="0.8" fill="#00F5FF" opacity="0.2"/>
  <circle cx="460" cy="200" r="1" fill="#667EEA" opacity="0.12"/>
  <circle cx="50" cy="240" r="0.7" fill="#00F5FF" opacity="0.18"/>

  <!-- SHIELD with 3D effects -->
  <g transform="translate(148, 55) scale(6)" filter="url(#shieldGlow)">
    <!-- Shadow layer (offset slightly) -->
    <path d="M18 2L3 8v12c0 9.9 6.4 19.1 15 21.9C26.6 39.1 33 29.9 33 20V8L18 2z" fill="#000" opacity="0.3" transform="translate(0.5, 1)"/>
    <!-- Outer shield (3D gold gradient) -->
    <path d="M18 2L3 8v12c0 9.9 6.4 19.1 15 21.9C26.6 39.1 33 29.9 33 20V8L18 2z" fill="url(#goldShield)"/>
    <!-- Highlight edge (top-left light catch) -->
    <path d="M18 2L3 8v4L18 6l15-4V8L18 2z" fill="#FFFFFF" opacity="0.2"/>
    <!-- Inner shield (3D depth gradient) -->
    <path d="M18 5L5.5 10.5V20c0 8.5 5.5 16.4 12.5 18.8C25 36.4 30.5 28.5 30.5 20v-9.5L18 5z" fill="url(#innerShield)"/>
    <!-- Inner shield highlight -->
    <path d="M18 5L5.5 10.5V14L18 8.5 30.5 14v-3.5L18 5z" fill="#667EEA" opacity="0.15"/>
    <!-- Checkmark (gold with depth) -->
    <path d="M12 20l4 4 8-8" stroke="#000" stroke-width="3" stroke-linecap="round" stroke-linejoin="round" fill="none" opacity="0.2" transform="translate(0.3, 0.5)"/>
    <path d="M12 20l4 4 8-8" stroke="url(#goldText)" stroke-width="2.5" stroke-linecap="round" stroke-linejoin="round" fill="none"/>
  </g>

  <!-- TEXT: SCAMSHIELD -->
  <text x="256" y="365" text-anchor="middle" font-family="'Rajdhani', 'Orbitron', 'Share Tech', 'Exo 2', 'Segoe UI', Arial, sans-serif" font-weight="700" font-size="50" letter-spacing="5">
    <!-- Text shadow -->
    <tspan fill="#000" opacity="0.4" dx="1" dy="1">SCAM</tspan>
  </text>
  <text x="256" y="365" text-anchor="middle" font-family="'Rajdhani', 'Orbitron', 'Share Tech', 'Exo 2', 'Segoe UI', Arial, sans-serif" font-weight="700" font-size="50" letter-spacing="5">
    <tspan fill="url(#goldText)">SCAM</tspan><tspan fill="#FFFFFF">SHIELD</tspan>
  </text>

  <!-- Cyan tech separator line with glow -->
  <line x1="130" y1="383" x2="382" y2="383" stroke="#00F5FF" stroke-width="1.5" filter="url(#lineGlow)"/>

  <!-- Text: UK with cyan neon glow -->
  <text x="256" y="428" text-anchor="middle" font-family="'Rajdhani', 'Orbitron', 'Share Tech', 'Exo 2', 'Segoe UI', Arial, sans-serif" font-weight="600" font-size="36" fill="#00F5FF" letter-spacing="14" filter="url(#cyanTextGlow)">UK</text>

  <!-- Outer rim highlight for 3D pop -->
  <circle cx="256" cy="256" r="254" fill="none" stroke="url(#goldShield)" stroke-width="1.5" stroke-opacity="0.2"/>
  <circle cx="256" cy="256" r="256" fill="none" stroke="#000" stroke-width="2" stroke-opacity="0.3"/>
</svg>
